# Blender v2.90.1 OBJ File: 'Rock_4.blend'
# www.blender.org
mtllib Rock_4.mtl
o Cube
v 2.544163 1.434041 -2.544163
v 2.544163 -2.544163 -2.544163
v 2.544163 0.604777 2.544163
v 2.544163 -2.544163 2.544163
v -2.125861 1.939278 -2.393103
v -2.387101 -2.544163 -2.254765
v -2.544163 0.729342 2.544163
v -3.146470 -2.544163 3.083375
v -3.891974 -2.544163 0.000000
v 2.544163 2.544163 0.000000
v -2.544163 2.544163 0.000000
v 4.300591 -2.544163 0.000000
v -2.980929 -2.544163 1.272081
v 2.544163 2.544163 1.272081
v -2.544163 2.544163 1.272081
v 4.112462 -2.544163 1.272081
v -2.544163 2.544163 -1.272081
v 3.581591 -2.544163 -1.272081
v -2.980929 -2.544163 -1.272081
v 2.544163 2.544163 -1.272081
v 0.000000 -2.544163 -3.961676
v 0.000000 2.544163 2.829716
v 0.000000 -2.544163 4.049876
v 0.000000 2.544163 -2.544163
v 0.000000 -3.415108 0.000000
v 0.000000 6.311748 0.000000
v 0.000000 -3.415108 1.272081
v 0.000000 5.434822 1.272081
v 0.000000 5.365525 -1.272081
v 0.000000 -3.415108 -1.272081
v 1.177801 -2.745561 2.819103
v 1.276322 2.544163 -2.544163
v 1.276322 5.464551 0.000000
v 1.276322 5.049514 1.272081
v 1.276322 4.704989 -1.272081
v 1.276322 -2.544163 -3.402126
v 1.276322 2.544163 2.544163
v 1.276322 -3.415108 0.000000
v 1.276322 -3.415108 1.272081
v 1.276322 -3.415108 -1.272081
v -1.257947 -2.544163 -3.402126
v -1.257947 2.544163 2.544163
v -1.257947 -3.415108 0.000000
v -1.257947 -3.415108 1.272081
v -1.257947 -3.415108 -1.272081
v -1.562275 -2.544163 3.999080
v -1.257947 2.544163 -2.544163
v -1.257947 5.715280 0.000000
v -1.257947 4.704989 1.272081
v -0.985313 5.350991 -0.811256
v 2.544163 0.000000 -2.544163
v -2.544163 0.000000 2.544163
v 2.544163 0.000000 2.544163
v -2.412562 0.000000 -2.324095
v 3.075033 0.000000 0.000000
v -2.997463 0.000000 0.000000
v -2.544163 0.000000 1.272081
v 3.075033 0.000000 1.272081
v 2.544163 0.000000 -1.272081
v -2.544163 0.000000 -1.272081
v 0.000000 0.000000 -3.103713
v 0.000000 0.000000 3.444904
v 1.276322 0.000000 2.544163
v 1.276322 0.000000 -2.544163
v -1.257947 0.000000 -3.045051
v -1.257947 0.000000 3.386609
vt 0.811806 0.687500
vt 0.875000 0.687500
vt 0.875000 0.750000
vt 0.811806 0.750000
vt 0.500000 0.936806
vt 0.625000 0.936806
vt 0.625000 1.000000
vt 0.500000 1.000000
vt 0.500000 0.187500
vt 0.625000 0.187500
vt 0.625000 0.250000
vt 0.500000 0.250000
vt 0.312708 0.687500
vt 0.375000 0.687500
vt 0.375000 0.750000
vt 0.312708 0.750000
vt 0.500000 0.687500
vt 0.625000 0.687500
vt 0.625000 0.750000
vt 0.500000 0.750000
vt 0.500000 0.437708
vt 0.625000 0.437708
vt 0.625000 0.500000
vt 0.500000 0.500000
vt 0.500000 0.562500
vt 0.625000 0.562500
vt 0.625000 0.625000
vt 0.500000 0.625000
vt 0.312708 0.562500
vt 0.375000 0.562500
vt 0.375000 0.625000
vt 0.312708 0.625000
vt 0.500000 0.062500
vt 0.625000 0.062500
vt 0.625000 0.125000
vt 0.500000 0.125000
vt 0.811806 0.562500
vt 0.875000 0.562500
vt 0.875000 0.625000
vt 0.811806 0.625000
vt 0.500000 0.000000
vt 0.625000 0.000000
vt 0.811806 0.500000
vt 0.875000 0.500000
vt 0.312708 0.500000
vt 0.375000 0.500000
vt 0.188194 0.500000
vt 0.250000 0.500000
vt 0.250000 0.562500
vt 0.188194 0.562500
vt 0.687292 0.500000
vt 0.750000 0.500000
vt 0.750000 0.562500
vt 0.687292 0.562500
vt 0.687292 0.625000
vt 0.750000 0.625000
vt 0.750000 0.687500
vt 0.687292 0.687500
vt 0.188194 0.625000
vt 0.250000 0.625000
vt 0.250000 0.687500
vt 0.188194 0.687500
vt 0.500000 0.313194
vt 0.625000 0.313194
vt 0.625000 0.375000
vt 0.500000 0.375000
vt 0.250000 0.750000
vt 0.188194 0.750000
vt 0.500000 0.812292
vt 0.625000 0.812292
vt 0.625000 0.875000
vt 0.500000 0.875000
vt 0.750000 0.750000
vt 0.687292 0.750000
vt 0.125000 0.687500
vt 0.125000 0.750000
vt 0.125000 0.562500
vt 0.125000 0.625000
vt 0.125000 0.500000
vt 0.375000 0.875000
vt 0.375000 0.936806
vt 0.375000 0.250000
vt 0.375000 0.313194
vt 0.375000 0.375000
vt 0.375000 0.437708
vt 0.375000 0.812292
vt 0.375000 0.125000
vt 0.375000 0.187500
vt 0.375000 0.000000
vt 0.375000 0.062500
vt 0.375000 1.000000
vn -0.6401 0.4141 0.6472
vn -0.4422 0.2235 0.8686
vn -0.9639 0.0576 -0.2600
vn 0.2526 -0.8971 0.3624
vn 0.9357 0.1578 0.3155
vn 0.0000 0.0000 -1.0000
vn 0.9739 0.1016 -0.2032
vn 0.3095 -0.9469 -0.0875
vn -0.9807 0.0874 0.1747
vn -0.8805 0.4338 -0.1911
vn -1.0000 0.0000 0.0000
vn 0.9789 0.2043 0.0000
vn 0.2848 -0.9583 0.0211
vn -0.8875 0.4282 0.1700
vn -0.6123 0.4917 -0.6191
vn 0.2963 -0.8997 -0.3207
vn 1.0000 0.0000 0.0000
vn -0.9807 0.0874 -0.1747
vn -0.0754 -0.9378 -0.3389
vn 0.1169 0.4517 -0.8845
vn 0.3954 0.8190 0.4159
vn 0.0000 -1.0000 0.0000
vn 0.4404 0.7457 -0.5000
vn -0.0228 0.2040 -0.9787
vn -0.0054 -0.9535 0.3014
vn 0.4189 0.1090 0.9015
vn 0.1668 0.4579 0.8732
vn 0.6567 0.3746 0.6545
vn 0.0000 0.0000 1.0000
vn 0.8869 0.4426 -0.1321
vn 0.9038 0.4224 0.0689
vn 0.6209 0.4813 -0.6188
vn 0.0743 -0.9379 -0.3390
vn 0.2129 0.1068 -0.9712
vn 0.0916 -0.9374 0.3360
vn -0.2907 -0.9448 0.1512
vn -0.4218 0.1136 -0.8995
vn -0.3680 -0.9204 -0.1318
vn -0.3680 -0.9204 0.1318
vn -0.3912 -0.8642 -0.3164
vn -0.1805 0.4700 -0.8640
vn -0.3899 0.7396 0.5486
vn -0.3226 0.7816 -0.5339
vn -0.1303 0.2730 0.9531
vn -0.2341 0.4751 0.8482
vn -0.0376 0.2347 0.9714
vn -0.6327 0.0406 -0.7734
vn 0.3836 0.2951 -0.8751
vn 0.0999 0.0498 0.9937
vn 0.6568 0.1118 0.7457
vn -0.2325 0.2259 -0.9460
vn -0.8587 0.2247 -0.4605
vn 0.9099 0.1855 -0.3710
vn 0.9116 0.4054 0.0674
vn -0.9795 0.1944 -0.0526
vn -0.8587 0.2247 0.4605
vn 0.8336 0.3707 -0.4095
vn 0.3165 0.1577 -0.9354
vn 0.7620 0.1554 0.6287
vn -0.9395 0.0714 -0.3350
vn -0.5022 0.2750 0.8199
usemtl Material
s off
f 49/1/1 15/2/1 7/3/1 42/4/1
f 66/5/2 42/6/2 7/7/2 52/8/2
f 60/9/3 17/10/3 5/11/3 54/12/3
f 39/13/4 16/14/4 4/15/4 31/16/4
f 58/17/5 14/18/5 3/19/5 53/20/5
f 64/21/6 32/22/6 1/23/6 51/24/6
f 59/25/7 20/26/7 10/27/7 55/28/7
f 40/29/8 18/30/8 12/31/8 38/32/8
f 57/33/9 15/34/9 11/35/9 56/36/9
f 50/37/10 17/38/10 11/39/10 48/40/10
f 52/41/11 7/42/11 15/34/11 57/33/11
f 55/28/12 10/27/12 14/18/12 58/17/12
f 38/32/13 12/31/13 16/14/13 39/13/13
f 48/40/14 11/39/14 15/2/14 49/1/14
f 47/43/15 5/44/15 17/38/15 50/37/15
f 36/45/16 2/46/16 18/30/16 40/29/16
f 51/24/17 1/23/17 20/26/17 59/25/17
f 56/36/18 11/35/18 17/10/18 60/9/18
f 41/47/19 21/48/19 30/49/19 45/50/19
f 32/51/20 24/52/20 29/53/20 35/54/20
f 33/55/21 26/56/21 28/57/21 34/58/21
f 43/59/22 25/60/22 27/61/22 44/62/22
f 35/54/23 29/53/23 26/56/23 33/55/23
f 45/50/22 30/49/22 25/60/22 43/59/22
f 65/63/24 47/64/24 24/65/24 61/66/24
f 44/62/25 27/61/25 23/67/25 46/68/25
f 63/69/26 37/70/26 22/71/26 62/72/26
f 34/58/27 28/57/27 22/73/27 37/74/27
f 14/18/28 34/58/28 37/74/28 3/19/28
f 53/20/29 3/19/29 37/70/29 63/69/29
f 20/26/30 35/54/30 33/55/30 10/27/30
f 10/27/31 33/55/31 34/58/31 14/18/31
f 1/23/32 32/51/32 35/54/32 20/26/32
f 21/48/33 36/45/33 40/29/33 30/49/33
f 25/60/22 38/32/22 39/13/22 27/61/22
f 30/49/22 40/29/22 38/32/22 25/60/22
f 61/66/34 24/65/34 32/22/34 64/21/34
f 27/61/35 39/13/35 31/16/35 23/67/35
f 13/75/36 44/62/36 46/68/36 8/76/36
f 54/12/37 5/11/37 47/64/37 65/63/37
f 19/77/38 45/50/38 43/59/38 9/78/38
f 9/78/39 43/59/39 44/62/39 13/75/39
f 6/79/40 41/47/40 45/50/40 19/77/40
f 24/52/41 47/43/41 50/37/41 29/53/41
f 26/56/42 48/40/42 49/1/42 28/57/42
f 29/53/43 50/37/43 48/40/43 26/56/43
f 62/72/44 22/71/44 42/6/44 66/5/44
f 28/57/45 49/1/45 42/4/45 22/73/45
f 23/80/46 62/72/46 66/5/46 46/81/46
f 6/82/47 54/12/47 65/63/47 41/83/47
f 21/84/48 61/66/48 64/21/48 36/85/48
f 4/15/49 53/20/49 63/69/49 31/86/49
f 31/86/50 63/69/50 62/72/50 23/80/50
f 41/83/51 65/63/51 61/66/51 21/84/51
f 9/87/52 56/36/52 60/9/52 19/88/52
f 2/46/53 51/24/53 59/25/53 18/30/53
f 12/31/54 55/28/54 58/17/54 16/14/54
f 8/89/55 52/41/55 57/33/55 13/90/55
f 13/90/56 57/33/56 56/36/56 9/87/56
f 18/30/57 59/25/57 55/28/57 12/31/57
f 36/85/58 64/21/58 51/24/58 2/46/58
f 16/14/59 58/17/59 53/20/59 4/15/59
f 19/88/60 60/9/60 54/12/60 6/82/60
f 46/81/61 66/5/61 52/8/61 8/91/61
